<?xml version="1.0" encoding="UTF-8" standalone="no"?>
<!-- Generator: Adobe Illustrator 21.0.0, SVG Export Plug-In . SVG Version: 6.00 Build 0)  -->

<svg
   xmlns:dc="http://purl.org/dc/elements/1.1/"
   xmlns:cc="http://creativecommons.org/ns#"
   xmlns:rdf="http://www.w3.org/1999/02/22-rdf-syntax-ns#"
   xmlns:svg="http://www.w3.org/2000/svg"
   xmlns="http://www.w3.org/2000/svg"
   xmlns:sodipodi="http://sodipodi.sourceforge.net/DTD/sodipodi-0.dtd"
   xmlns:inkscape="http://www.inkscape.org/namespaces/inkscape"
   version="1.1"
   id="Layer_1"
   x="0px"
   y="0px"
   viewBox="0 0 34 34"
   style="enable-background:new 0 0 34 34;"
   xml:space="preserve"
   sodipodi:docname="koompi-icon-black.svg"
   inkscape:version="0.92.5 (2060ec1f9f, 2020-04-08)"><metadata
   id="metadata21"><rdf:RDF><cc:Work
       rdf:about=""><dc:format>image/svg+xml</dc:format><dc:type
         rdf:resource="http://purl.org/dc/dcmitype/StillImage" /></cc:Work></rdf:RDF></metadata><defs
   id="defs19" /><sodipodi:namedview
   pagecolor="#ffffff"
   bordercolor="#666666"
   borderopacity="1"
   objecttolerance="10"
   gridtolerance="10"
   guidetolerance="10"
   inkscape:pageopacity="0"
   inkscape:pageshadow="2"
   inkscape:window-width="1920"
   inkscape:window-height="1006"
   id="namedview17"
   showgrid="false"
   inkscape:zoom="6.9411765"
   inkscape:cx="17.144068"
   inkscape:cy="17"
   inkscape:window-x="0"
   inkscape:window-y="0"
   inkscape:window-maximized="1"
   inkscape:current-layer="Layer_1" />
<style
   type="text/css"
   id="style2">
	.st0{fill:#FFFFFF;}
</style>
<g
   id="g14"
   style="fill:#262e3c;fill-opacity:1">
	<g
   id="g12"
   style="fill:#262e3c;fill-opacity:1">
		<path
   class="st0"
   d="M18,0v11.2c0,2.6,2.1,4.8,4.8,4.8H34C26.4,13.6,20.4,7.6,18,0z"
   id="path4"
   style="fill:#262e3c;fill-opacity:1" />
		<path
   class="st0"
   d="M18,34V22.5c0-2.5,2-4.5,4.5-4.5H34C26.4,20.4,20.4,26.4,18,34z"
   id="path6"
   style="fill:#262e3c;fill-opacity:1" />
		<path
   class="st0"
   d="M16,0v11.5c0,2.5-2,4.5-4.5,4.5H0C7.6,13.6,13.6,7.6,16,0z"
   id="path8"
   style="fill:#262e3c;fill-opacity:1" />
		<path
   class="st0"
   d="M16,34V22.5c0-2.5-2-4.5-4.5-4.5H0C7.6,20.4,13.6,26.4,16,34z"
   id="path10"
   style="fill:#262e3c;fill-opacity:1" />
	</g>
</g>
</svg>