<?xml version="1.0" encoding="utf-8"?>
<!-- Generator: Adobe Illustrator 21.0.0, SVG Export Plug-In . SVG Version: 6.00 Build 0)  -->
<svg version="1.1" id="Layer_1" xmlns="http://www.w3.org/2000/svg" xmlns:xlink="http://www.w3.org/1999/xlink" x="0px" y="0px"
	 viewBox="0 0 34 34" style="enable-background:new 0 0 34 34;" xml:space="preserve">
<style type="text/css">
	.st0{fill:#FFFFFF;}
</style>
<g>
	<g>
		<path class="st0" d="M18,0v11.2c0,2.6,2.1,4.8,4.8,4.8H34C26.4,13.6,20.4,7.6,18,0z"/>
		<path class="st0" d="M18,34V22.5c0-2.5,2-4.5,4.5-4.5H34C26.4,20.4,20.4,26.4,18,34z"/>
		<path class="st0" d="M16,0v11.5c0,2.5-2,4.5-4.5,4.5H0C7.6,13.6,13.6,7.6,16,0z"/>
		<path class="st0" d="M16,34V22.5c0-2.5-2-4.5-4.5-4.5H0C7.6,20.4,13.6,26.4,16,34z"/>
	</g>
</g>
</svg>
